<svg width="114" height="113" viewBox="0 0 114 113" fill="none" xmlns="http://www.w3.org/2000/svg">
<path d="M63.7325 64.3238H0.0784302C0.0784302 29.1686 28.5773 0.669678 63.7325 0.669678V64.3238Z" fill="#161616"/>
<circle cx="65.4077" cy="63.7654" r="48.5781" fill="#202020"/>
<mask id="mask0_8_293" style="mask-type:alpha" maskUnits="userSpaceOnUse" x="38" y="36" width="54" height="55">
<rect x="38.0475" y="36.4053" width="53.6035" height="53.6035" fill="#D9D9D9"/>
</mask>
<g mask="url(#mask0_8_293)">
<path d="M64.8493 85.5418C62.0575 85.5418 59.4425 85.0113 57.0043 83.9504C54.566 82.8895 52.4442 81.4564 50.6388 79.651C48.8334 77.8456 47.4003 75.7238 46.3394 73.2856C45.2785 70.8473 44.748 68.2323 44.748 65.4405C44.748 62.6486 45.2785 60.0336 46.3394 57.5954C47.4003 55.1572 48.8334 53.0354 50.6388 51.23C52.4442 49.4246 54.566 47.9914 57.0043 46.9305C59.4425 45.8696 62.0575 45.3392 64.8493 45.3392C67.6412 45.3392 70.2562 45.8696 72.6944 46.9305C75.1326 47.9914 77.2545 49.4246 79.0598 51.23C80.8652 53.0354 82.2984 55.1572 83.3593 57.5954C84.4202 60.0336 84.9506 62.6486 84.9506 65.4405C84.9506 68.2323 84.4202 70.8473 83.3593 73.2856C82.2984 75.7238 80.8652 77.8456 79.0598 79.651C77.2545 81.4564 75.1326 82.8895 72.6944 83.9504C70.2562 85.0113 67.6412 85.5418 64.8493 85.5418ZM71.1031 74.8211L74.2299 71.6942L67.0828 64.5471V54.2731H62.6159V66.3339L71.1031 74.8211ZM50.5551 41.6539L53.682 44.7808L44.1897 54.2731L41.0628 51.1462L50.5551 41.6539ZM79.1436 41.6539L88.6359 51.1462L85.509 54.2731L76.0167 44.7808L79.1436 41.6539ZM64.8493 81.0748C69.2046 81.0748 72.8992 79.5579 75.933 76.5241C78.9668 73.4903 80.4837 69.7957 80.4837 65.4405C80.4837 61.0852 78.9668 57.3906 75.933 54.3568C72.8992 51.323 69.2046 49.8061 64.8493 49.8061C60.4941 49.8061 56.7995 51.323 53.7657 54.3568C50.7319 57.3906 49.215 61.0852 49.215 65.4405C49.215 69.7957 50.7319 73.4903 53.7657 76.5241C56.7995 79.5579 60.4941 81.0748 64.8493 81.0748Z" fill="white"/>
</g>
</svg>
