<svg width="115" height="113" viewBox="0 0 115 113" fill="none" xmlns="http://www.w3.org/2000/svg">
<path d="M64.5577 64.3238H0.903564C0.903564 29.1686 29.4025 0.669678 64.5577 0.669678V64.3238Z" fill="#161616"/>
<circle cx="66.2328" cy="63.7654" r="48.5781" fill="#202020"/>
<mask id="mask0_8_308" style="mask-type:alpha" maskUnits="userSpaceOnUse" x="38" y="36" width="55" height="55">
<rect x="38.8727" y="36.4053" width="53.6035" height="53.6035" fill="#D9D9D9"/>
</mask>
<g mask="url(#mask0_8_308)">
<path d="M65.6745 85.5417C62.5849 85.5417 59.6813 84.9555 56.9639 83.7829C54.2465 82.6103 51.8828 81.019 49.8726 79.0088C47.8625 76.9987 46.2712 74.6349 45.0986 71.9175C43.926 69.2001 43.3397 66.2966 43.3397 63.207C43.3397 60.1173 43.926 57.2138 45.0986 54.4964C46.2712 51.779 47.8625 49.4152 49.8726 47.4051C51.8828 45.395 54.2465 43.8036 56.9639 42.6311C59.6813 41.4585 62.5849 40.8722 65.6745 40.8722C71.1093 40.8722 75.8647 42.5752 79.9408 45.9813C84.0169 49.3873 86.5575 53.6589 87.5626 58.7958H82.9839C82.2767 56.0785 81.0017 53.6495 79.1591 51.5091C77.3165 49.3687 75.0551 47.7587 72.3749 46.6792V47.5726C72.3749 48.801 71.9375 49.8526 71.0628 50.7274C70.188 51.6022 69.1364 52.0396 67.908 52.0396H63.441V56.5065C63.441 57.1394 63.227 57.6698 62.7989 58.0979C62.3708 58.526 61.8404 58.74 61.2075 58.74H56.7406V63.207H61.2075V69.9074H58.9741L48.2534 59.1867C48.1417 59.8567 48.0393 60.5268 47.9463 61.1968C47.8532 61.8669 47.8067 62.5369 47.8067 63.207C47.8067 68.0834 49.519 72.2712 52.9437 75.7703C56.3683 79.2694 60.6119 81.0376 65.6745 81.0748V85.5417ZM85.9991 84.425L78.852 77.2779C78.0703 77.7246 77.2327 78.0968 76.3394 78.3946C75.446 78.6924 74.4967 78.8413 73.4917 78.8413C70.6998 78.8413 68.3267 77.8642 66.3725 75.9099C64.4182 73.9556 63.441 71.5825 63.441 68.7907C63.441 65.9988 64.4182 63.6257 66.3725 61.6714C68.3267 59.7172 70.6998 58.74 73.4917 58.74C76.2835 58.74 78.6566 59.7172 80.6109 61.6714C82.5652 63.6257 83.5423 65.9988 83.5423 68.7907C83.5423 69.7957 83.3934 70.745 83.0956 71.6383C82.7978 72.5317 82.4256 73.3693 81.9789 74.151L89.126 81.2981L85.9991 84.425ZM73.4917 74.3744C75.0551 74.3744 76.3766 73.8346 77.4561 72.7551C78.5356 71.6756 79.0754 70.3541 79.0754 68.7907C79.0754 67.2272 78.5356 65.9058 77.4561 64.8262C76.3766 63.7467 75.0551 63.207 73.4917 63.207C71.9282 63.207 70.6068 63.7467 69.5272 64.8262C68.4477 65.9058 67.908 67.2272 67.908 68.7907C67.908 70.3541 68.4477 71.6756 69.5272 72.7551C70.6068 73.8346 71.9282 74.3744 73.4917 74.3744Z" fill="white"/>
</g>
</svg>
