<svg width="115" height="113" viewBox="0 0 115 113" fill="none" xmlns="http://www.w3.org/2000/svg">
<path d="M63.9074 64.3238H0.253242C0.253242 29.1686 28.7522 0.669678 63.9074 0.669678V64.3238Z" fill="#161616"/>
<circle cx="65.5825" cy="63.7654" r="48.5781" fill="#202020"/>
<mask id="mask0_8_278" style="mask-type:alpha" maskUnits="userSpaceOnUse" x="38" y="36" width="54" height="55">
<rect x="38.2224" y="36.4053" width="53.6035" height="53.6035" fill="#D9D9D9"/>
</mask>
<g mask="url(#mask0_8_278)">
<path d="M62.7906 45.3392V36.4053H67.2576V45.3392H62.7906ZM52.9075 48.5219L46.207 41.8215L49.3897 38.6388L56.0902 45.3392L52.9075 48.5219ZM47.1563 87.7753C46.5234 87.7753 45.993 87.5612 45.5649 87.1331C45.1368 86.705 44.9228 86.1746 44.9228 85.5418V67.674L49.6131 54.2731C49.8364 53.603 50.2366 53.0633 50.8136 52.6538C51.3906 52.2444 52.0327 52.0396 52.74 52.0396H58.3237V47.5727H65.6383C64.7449 48.8383 64.0469 50.2249 63.5444 51.7325C63.0419 53.2401 62.7906 54.8315 62.7906 56.5066H53.5217L50.2273 65.4405H65.6383C66.2711 66.3339 66.9784 67.1621 67.7601 67.9252C68.5418 68.6883 69.4166 69.3491 70.3844 69.9074H49.3897V78.8413H80.6584V71.9734C81.4401 71.8617 82.2033 71.6942 82.9477 71.4709C83.6922 71.2475 84.4181 70.9683 85.1254 70.6333V85.5418C85.1254 86.1746 84.9113 86.705 84.4833 87.1331C84.0552 87.5612 83.5247 87.7753 82.8919 87.7753H80.6584C80.0256 87.7753 79.4952 87.5612 79.0671 87.1331C78.639 86.705 78.4249 86.1746 78.4249 85.5418V83.3083H51.6232V85.5418C51.6232 86.1746 51.4092 86.705 50.9811 87.1331C50.553 87.5612 50.0226 87.7753 49.3897 87.7753H47.1563ZM51.6232 76.6079H58.3237C58.9565 76.6079 59.4869 76.3938 59.915 75.9657C60.3431 75.5377 60.5571 75.0072 60.5571 74.3744C60.5571 73.7416 60.3431 73.2111 59.915 72.783C59.4869 72.355 58.9565 72.1409 58.3237 72.1409H51.6232V76.6079ZM78.4249 76.6079V72.1409H71.7245C71.0917 72.1409 70.5613 72.355 70.1332 72.783C69.7051 73.2111 69.491 73.7416 69.491 74.3744C69.491 75.0072 69.7051 75.5377 70.1332 75.9657C70.5613 76.3938 71.0917 76.6079 71.7245 76.6079H78.4249ZM76.8057 61.5319L84.567 53.8264L82.2219 51.4812L76.8057 56.7858L74.628 54.6081L72.2829 57.0091L76.8057 61.5319ZM78.4249 45.3392C81.5146 45.3392 84.1482 46.428 86.3259 48.6056C88.5035 50.7833 89.5923 53.4169 89.5923 56.5066C89.5923 59.5962 88.5035 62.2299 86.3259 64.4075C84.1482 66.5851 81.5146 67.674 78.4249 67.674C75.3353 67.674 72.7017 66.5851 70.524 64.4075C68.3464 62.2299 67.2576 59.5962 67.2576 56.5066C67.2576 53.4169 68.3464 50.7833 70.524 48.6056C72.7017 46.428 75.3353 45.3392 78.4249 45.3392Z" fill="white"/>
</g>
</svg>
