<svg width="25" height="24" viewBox="0 0 25 24" fill="none" xmlns="http://www.w3.org/2000/svg">
<mask id="mask0_6_198" style="mask-type:alpha" maskUnits="userSpaceOnUse" x="0" y="0" width="25" height="24">
<rect x="0.0787354" width="24" height="24" fill="#D9D9D9"/>
</mask>
<g mask="url(#mask0_6_198)">
<mask id="mask1_6_198" style="mask-type:alpha" maskUnits="userSpaceOnUse" x="-12" y="-13" width="49" height="49">
<rect x="-11.583" y="-12.4967" width="48" height="48" fill="#D9D9D9"/>
</mask>
<g mask="url(#mask1_6_198)">
<path d="M10.992 19.2283H13.867V12.9783H20.167V10.1033H13.867V3.82828H10.992V10.1033H4.74198V12.9783H10.992V19.2283ZM12.4195 31.2533C12.0758 31.2533 11.727 31.1824 11.373 31.0408C11.019 30.8991 10.7003 30.7033 10.417 30.4533L-6.48302 13.5533C-6.74969 13.2699 -6.94969 12.9538 -7.08302 12.6048C-7.21635 12.2561 -7.28302 11.9083 -7.28302 11.5613C-7.28302 11.2083 -7.21635 10.8519 -7.08302 10.4923C-6.94969 10.1329 -6.74969 9.81995 -6.48302 9.55328L10.4135 -7.39322C10.6991 -7.67889 11.0175 -7.88422 11.3685 -8.00922C11.7198 -8.13422 12.0781 -8.19672 12.4435 -8.19672C12.8091 -8.19672 13.1628 -8.13422 13.5045 -8.00922C13.8461 -7.88422 14.1503 -7.68005 14.417 -7.39672L31.392 9.55328C31.6753 9.81995 31.8753 10.1336 31.992 10.4943C32.1086 10.8546 32.167 11.2113 32.167 11.5643C32.167 11.9173 32.1086 12.2663 31.992 12.6113C31.8753 12.9559 31.6741 13.2714 31.3885 13.5578L14.417 30.4533C14.151 30.7236 13.8441 30.9244 13.4965 31.0558C13.1491 31.1874 12.7901 31.2533 12.4195 31.2533ZM12.417 28.4033L29.317 11.5533L12.417 -5.34672L-4.43302 11.5533L12.417 28.4033Z" fill="white"/>
</g>
</g>
</svg>
