<svg width="25" height="24" viewBox="0 0 25 24" fill="none" xmlns="http://www.w3.org/2000/svg">
<mask id="mask0_7_217" style="mask-type:alpha" maskUnits="userSpaceOnUse" x="0" y="0" width="25" height="24">
<rect x="0.0787354" width="24" height="24" fill="#D9D9D9"/>
</mask>
<g mask="url(#mask0_7_217)">
<path d="M16.0037 11.025V8.075H13.0537V6.2H16.0037V3.25H17.8787V6.2H20.8287V8.075H17.8787V11.025H16.0037ZM19.8037 20.75C17.8037 20.75 15.8162 20.3063 13.8412 19.4188C11.8662 18.5313 10.0662 17.2708 8.44124 15.6375C6.8079 14.0125 5.54749 12.2125 4.65999 10.2375C3.77249 8.2625 3.32874 6.27342 3.32874 4.27025C3.32874 3.98175 3.42632 3.73958 3.62149 3.54375C3.81682 3.34792 4.0609 3.25 4.35374 3.25H8.22874C8.46207 3.25 8.66415 3.32292 8.83499 3.46875C9.00582 3.61458 9.11207 3.8 9.15374 4.025L9.80374 7.425C9.83707 7.65 9.82665 7.85208 9.77249 8.03125C9.71832 8.21042 9.62874 8.36667 9.50374 8.5L7.14124 10.9C7.4829 11.5167 7.8764 12.1083 8.32174 12.6748C8.76707 13.2413 9.2569 13.7872 9.79124 14.3125C10.2912 14.8125 10.8225 15.2833 11.385 15.725C11.9475 16.1667 12.5454 16.575 13.1787 16.95L15.5537 14.6C15.6954 14.4583 15.8621 14.3583 16.0537 14.3C16.2454 14.2417 16.4454 14.225 16.6537 14.25L20.0287 14.925C20.2621 14.9833 20.4537 15.1013 20.6037 15.2788C20.7537 15.4564 20.8287 15.6552 20.8287 15.875V19.725C20.8287 20.0178 20.7312 20.2619 20.536 20.4573C20.3407 20.6524 20.0966 20.75 19.8037 20.75ZM6.24124 9.125L7.89124 7.475L7.45374 5.125H5.24124C5.3079 5.79167 5.4204 6.4625 5.57874 7.1375C5.73707 7.8125 5.9579 8.475 6.24124 9.125ZM14.9412 17.825C15.5829 18.1083 16.2412 18.3333 16.9162 18.5C17.5912 18.6667 18.2704 18.775 18.9537 18.825V16.625L16.6537 16.1375L14.9412 17.825Z" fill="white"/>
</g>
</svg>
