<svg width="25" height="24" viewBox="0 0 25 24" fill="none" xmlns="http://www.w3.org/2000/svg">
<mask id="mask0_7_247" style="mask-type:alpha" maskUnits="userSpaceOnUse" x="0" y="0" width="25" height="24">
<rect x="0.0787354" width="24" height="24" fill="#D9D9D9"/>
</mask>
<g mask="url(#mask0_7_247)">
<path d="M5.17871 20.75C4.66304 20.75 4.22163 20.5664 3.85446 20.1992C3.48729 19.8321 3.30371 19.3907 3.30371 18.875V5.1C3.30371 4.58433 3.48729 4.14292 3.85446 3.77575C4.22163 3.40858 4.66304 3.225 5.17871 3.225H18.9787C19.4944 3.225 19.9358 3.40858 20.303 3.77575C20.6701 4.14292 20.8537 4.58433 20.8537 5.1V11.7625C20.5559 11.6227 20.2501 11.5023 19.9365 11.4015C19.623 11.3005 19.3037 11.225 18.9787 11.175V5.1H5.17871V18.875H11.377C11.4281 19.2167 11.5066 19.5441 11.6125 19.8572C11.7183 20.1706 11.8445 20.4682 11.9912 20.75H5.17871ZM5.17871 18.875V5.1V11.175V11.1V18.875ZM7.20371 16.85H11.3662C11.4162 16.525 11.4891 16.2062 11.585 15.8937C11.6808 15.5812 11.7954 15.275 11.9287 14.975H7.20371V16.85ZM7.20371 12.925H13.4162C13.8995 12.4833 14.4391 12.1125 15.035 11.8125C15.6308 11.5125 16.2704 11.3042 16.9537 11.1875V11.05H7.20371V12.925ZM7.20371 9H16.9537V7.125H7.20371V9ZM18.0055 22.625C16.671 22.625 15.5329 22.1547 14.5912 21.2142C13.6495 20.2736 13.1787 19.1361 13.1787 17.8017C13.1787 16.4672 13.649 15.3292 14.5895 14.3875C15.5301 13.4458 16.6676 12.975 18.002 12.975C19.3365 12.975 20.4745 13.4452 21.4162 14.3857C22.3579 15.3264 22.8287 16.4639 22.8287 17.7982C22.8287 19.1327 22.3585 20.2708 21.418 21.2125C20.4773 22.1542 19.3398 22.625 18.0055 22.625ZM17.5287 20.75H18.5037V18.275H20.9787V17.325H18.5037V14.85H17.5287V17.325H15.0537V18.275H17.5287V20.75Z" fill="white"/>
</g>
</svg>
