<svg width="25" height="24" viewBox="0 0 25 24" fill="none" xmlns="http://www.w3.org/2000/svg">
<mask id="mask0_6_176" style="mask-type:alpha" maskUnits="userSpaceOnUse" x="0" y="0" width="25" height="24">
<rect x="0.0787354" width="24" height="24" fill="#D9D9D9"/>
</mask>
<g mask="url(#mask0_6_176)">
<path d="M5.92874 17.1C6.77874 16.45 7.72874 15.9375 8.77874 15.5625C9.82874 15.1875 10.9287 15 12.0787 15C13.2287 15 14.3287 15.1875 15.3787 15.5625C16.4287 15.9375 17.3787 16.45 18.2287 17.1C18.8121 16.4167 19.2662 15.6417 19.5912 14.775C19.9162 13.9083 20.0787 12.9833 20.0787 12C20.0787 9.78333 19.2996 7.89583 17.7412 6.3375C16.1829 4.77917 14.2954 4 12.0787 4C9.86207 4 7.97457 4.77917 6.41624 6.3375C4.8579 7.89583 4.07874 9.78333 4.07874 12C4.07874 12.9833 4.24124 13.9083 4.56624 14.775C4.89124 15.6417 5.3454 16.4167 5.92874 17.1ZM12.0787 13C11.0954 13 10.2662 12.6625 9.59124 11.9875C8.91624 11.3125 8.57874 10.4833 8.57874 9.5C8.57874 8.51667 8.91624 7.6875 9.59124 7.0125C10.2662 6.3375 11.0954 6 12.0787 6C13.0621 6 13.8912 6.3375 14.5662 7.0125C15.2412 7.6875 15.5787 8.51667 15.5787 9.5C15.5787 10.4833 15.2412 11.3125 14.5662 11.9875C13.8912 12.6625 13.0621 13 12.0787 13ZM12.0787 22C10.6954 22 9.3954 21.7375 8.17874 21.2125C6.96207 20.6875 5.90374 19.975 5.00374 19.075C4.10374 18.175 3.39124 17.1167 2.86624 15.9C2.34124 14.6833 2.07874 13.3833 2.07874 12C2.07874 10.6167 2.34124 9.31667 2.86624 8.1C3.39124 6.88333 4.10374 5.825 5.00374 4.925C5.90374 4.025 6.96207 3.3125 8.17874 2.7875C9.3954 2.2625 10.6954 2 12.0787 2C13.4621 2 14.7621 2.2625 15.9787 2.7875C17.1954 3.3125 18.2537 4.025 19.1537 4.925C20.0537 5.825 20.7662 6.88333 21.2912 8.1C21.8162 9.31667 22.0787 10.6167 22.0787 12C22.0787 13.3833 21.8162 14.6833 21.2912 15.9C20.7662 17.1167 20.0537 18.175 19.1537 19.075C18.2537 19.975 17.1954 20.6875 15.9787 21.2125C14.7621 21.7375 13.4621 22 12.0787 22ZM12.0787 20C12.9621 20 13.7954 19.8708 14.5787 19.6125C15.3621 19.3542 16.0787 18.9833 16.7287 18.5C16.0787 18.0167 15.3621 17.6458 14.5787 17.3875C13.7954 17.1292 12.9621 17 12.0787 17C11.1954 17 10.3621 17.1292 9.57874 17.3875C8.7954 17.6458 8.07874 18.0167 7.42874 18.5C8.07874 18.9833 8.7954 19.3542 9.57874 19.6125C10.3621 19.8708 11.1954 20 12.0787 20ZM12.0787 11C12.5121 11 12.8704 10.8583 13.1537 10.575C13.4371 10.2917 13.5787 9.93333 13.5787 9.5C13.5787 9.06667 13.4371 8.70833 13.1537 8.425C12.8704 8.14167 12.5121 8 12.0787 8C11.6454 8 11.2871 8.14167 11.0037 8.425C10.7204 8.70833 10.5787 9.06667 10.5787 9.5C10.5787 9.93333 10.7204 10.2917 11.0037 10.575C11.2871 10.8583 11.6454 11 12.0787 11Z" fill="white"/>
</g>
</svg>
