<svg width="25" height="24" viewBox="0 0 25 24" fill="none" xmlns="http://www.w3.org/2000/svg">
<mask id="mask0_6_183" style="mask-type:alpha" maskUnits="userSpaceOnUse" x="0" y="0" width="25" height="24">
<rect x="0.0787354" width="24" height="24" fill="#D9D9D9"/>
</mask>
<g mask="url(#mask0_6_183)">
<path d="M12.0787 15.9125L15.9912 12L12.0787 8.0875L10.7662 9.4L12.4287 11.0625H8.14124V12.9375H12.4287L10.7662 14.6L12.0787 15.9125ZM12.0787 21.75C10.7302 21.75 9.46299 21.4937 8.27699 20.981C7.09115 20.4682 6.05957 19.7723 5.18224 18.8935C4.3049 18.0145 3.60999 16.9826 3.09749 15.7978C2.58499 14.6131 2.32874 13.3472 2.32874 12C2.32874 10.6515 2.58507 9.38425 3.09774 8.19825C3.61057 7.01242 4.3064 5.98083 5.18524 5.1035C6.06424 4.22617 7.09615 3.53125 8.28099 3.01875C9.46565 2.50625 10.7316 2.25 12.0787 2.25C13.4272 2.25 14.6945 2.50633 15.8805 3.019C17.0663 3.53183 18.0979 4.22767 18.9752 5.1065C19.8526 5.9855 20.5475 7.01742 21.06 8.20225C21.5725 9.38692 21.8287 10.6528 21.8287 12C21.8287 13.3485 21.5724 14.6158 21.0597 15.8018C20.5469 16.9876 19.8511 18.0192 18.9722 18.8965C18.0932 19.7738 17.0613 20.4688 15.8765 20.9813C14.6918 21.4938 13.4259 21.75 12.0787 21.75ZM12.0787 19.875C14.2704 19.875 16.1308 19.1104 17.66 17.5813C19.1892 16.0521 19.9537 14.1917 19.9537 12C19.9537 9.80833 19.1892 7.94792 17.66 6.41875C16.1308 4.88958 14.2704 4.125 12.0787 4.125C9.88707 4.125 8.02665 4.88958 6.49749 6.41875C4.96832 7.94792 4.20374 9.80833 4.20374 12C4.20374 14.1917 4.96832 16.0521 6.49749 17.5813C8.02665 19.1104 9.88707 19.875 12.0787 19.875Z" fill="white"/>
</g>
</svg>
